<?xml version="1.0" standalone="no"?>
<!DOCTYPE svg PUBLIC "-//W3C//DTD SVG 20010904//EN"
 "http://www.w3.org/TR/2001/REC-SVG-20010904/DTD/svg10.dtd">
<svg version="1.0" xmlns="http://www.w3.org/2000/svg"
 width="192.000000pt" height="118.000000pt" viewBox="0 0 192.000000 118.000000"
 preserveAspectRatio="xMidYMid meet">
<metadata>
Created by potrace 1.16, written by Peter Selinger 2001-2019
</metadata>
<g transform="translate(0.000000,118.000000) scale(0.100000,-0.100000)"
fill="#000000" stroke="none">
<path d="M706 790 c-41 -13 -84 -58 -96 -99 -5 -20 -10 -79 -10 -131 0 -114
19 -166 72 -198 50 -31 142 -31 189 1 56 37 69 76 69 206 0 98 -3 119 -22 152
-36 65 -120 93 -202 69z m116 -97 c15 -14 18 -32 18 -124 0 -104 -1 -108 -26
-128 -35 -28 -69 -26 -99 4 -23 22 -25 31 -25 125 0 87 3 103 20 120 25 25 86
27 112 3z"/>
<path d="M1071 783 c-22 -11 -40 -31 -52 -57 -27 -60 -25 -66 25 -66 35 0 45
4 49 20 3 11 17 25 32 32 24 11 29 10 46 -10 10 -13 15 -31 12 -40 -3 -9 -43
-68 -89 -129 -73 -97 -84 -118 -84 -153 l0 -40 130 0 130 0 0 40 0 40 -76 0
-76 0 66 84 c36 47 70 96 76 111 15 40 12 108 -6 134 -34 48 -121 64 -183 34z"/>
<path d="M430 565 l0 -225 40 0 40 0 0 225 0 225 -40 0 -40 0 0 -225z"/>
<path d="M1353 778 c-19 -9 -23 -19 -23 -56 0 -42 1 -44 25 -38 l25 6 0 -175
0 -175 40 0 40 0 0 225 0 225 -42 -1 c-24 0 -53 -5 -65 -11z"/>
</g>
</svg>
